<?xml version="1.0" standalone="no"?>
<!DOCTYPE svg PUBLIC "-//W3C//DTD SVG 20010904//EN"
 "http://www.w3.org/TR/2001/REC-SVG-20010904/DTD/svg10.dtd">
<svg version="1.0" xmlns="http://www.w3.org/2000/svg"
 width="232.000000pt" height="217.000000pt" viewBox="0 0 232.000000 217.000000"
 preserveAspectRatio="xMidYMid meet">

<g transform="translate(0.000000,217.000000) scale(0.100000,-0.100000)"
fill="#000000" stroke="none">
<path d="M1360 2090 c-140 -38 -251 -100 -455 -254 -216 -163 -326 -215 -504
-240 -107 -15 -142 -29 -182 -73 -64 -70 -97 -149 -125 -300 -22 -116 -30
-423 -15 -539 32 -243 112 -444 221 -555 91 -93 164 -100 263 -24 44 33 152
163 246 294 77 108 225 240 326 292 133 69 200 84 380 83 116 0 185 -6 304
-27 164 -29 291 -34 331 -14 70 36 87 122 49 263 -35 129 -30 205 22 354 39
110 44 135 44 210 0 67 -5 95 -23 134 -28 61 -194 231 -217 223 -8 -4 -14 -1
-12 6 4 21 -199 134 -287 158 -115 32 -266 36 -366 9z"/>
</g>
</svg>
