<?xml version="1.0" standalone="no"?>
<!DOCTYPE svg PUBLIC "-//W3C//DTD SVG 20010904//EN"
 "http://www.w3.org/TR/2001/REC-SVG-20010904/DTD/svg10.dtd">
<svg version="1.0" xmlns="http://www.w3.org/2000/svg"
 width="225.000000pt" height="225.000000pt" viewBox="0 0 225.000000 225.000000"
 preserveAspectRatio="xMidYMid meet">

<g transform="translate(0.000000,225.000000) scale(0.100000,-0.100000)"
fill="#000000" stroke="none">
<path d="M619 2220 c-254 -25 -428 -134 -518 -323 -74 -155 -76 -174 -76 -767
0 -469 2 -534 18 -610 42 -196 150 -342 310 -419 151 -73 183 -76 772 -76 589
0 621 3 772 76 160 77 268 223 310 419 16 76 18 141 18 605 0 464 -2 529 -18
605 -42 196 -150 343 -310 419 -152 72 -171 75 -717 77 -267 1 -519 -1 -561
-6z m1033 -200 c188 -27 298 -117 351 -285 22 -69 22 -81 22 -605 0 -493 -1
-540 -19 -603 -37 -137 -130 -234 -267 -280 -61 -20 -84 -21 -559 -25 -303 -2
-524 1 -571 7 -197 26 -308 114 -362 286 -22 69 -22 81 -22 610 0 529 0 541
22 610 52 164 165 258 343 284 79 12 982 13 1062 1z"/>
<path d="M1665 1836 c-114 -51 -104 -212 15 -246 105 -30 201 80 154 176 -34
68 -107 99 -169 70z"/>
<path d="M981 1674 c-145 -39 -285 -150 -353 -280 -49 -92 -68 -169 -68 -269
0 -314 252 -565 567 -565 312 0 563 253 563 567 0 256 -176 483 -426 548 -72
19 -211 18 -283 -1z m310 -219 c222 -113 270 -414 94 -590 -141 -142 -378
-143 -519 -2 -145 145 -145 379 0 524 108 108 289 136 425 68z"/>
</g>
</svg>
